# xmcd CD database file
#
# Track frame offsets:
#	150
#	15651
#	29644
#	44426
#	60424
#	76216
#	92456
#	109153
#	127858
#	140639
#	159328
#	173780
#
# Disc length: 2405 seconds
#
# Revision: 0
# Processed by: cddbd v1.5PL3 Copyright (c) Steve Scherf et al.
# Submitted via: CDex 1.51
#
DISCID=9009630c
DTITLE=Марк Фрейдкин и группа "Гой" - "Последние песни"
DYEAR=2002
DGENRE=
TTITLE0=Брассенс и Бернес
TTITLE1=Давай споём
TTITLE2=Невероятная история о злоключениях Кондрака и задрипницы Клю
TTITLE3=Весенняя элегия
TTITLE4=Эта песня
TTITLE5=Гоп со смыком
TTITLE6=Соседка
TTITLE7=Тонкий шрам на любимой попе
TTITLE8=Крошка Ва
TTITLE9=American Woman
TTITLE10=Песня про жопу
TTITLE11=Романс под мандолину (Bonus Track)
EXTD=YEAR: 2002
EXTT0=
EXTT1=
EXTT2=
EXTT3=
EXTT4=
EXTT5=
EXTT6=
EXTT7=
EXTT8=
EXTT9=
EXTT10=
EXTT11=
PLAYORDER=
